<svg width="155" height="155" viewBox="0 0 155 155" fill="none" xmlns="http://www.w3.org/2000/svg">
<path d="M122.708 12.9167H32.2915C27.1529 12.9167 22.2248 14.9579 18.5913 18.5915C14.9578 22.225 12.9165 27.1531 12.9165 32.2917V39.8479C12.9156 42.5148 13.4652 45.1532 14.5311 47.5979V47.9854C15.4435 50.0583 16.7359 51.9422 18.3415 53.5396L58.1248 93.0646V135.625C58.1226 136.723 58.4002 137.803 58.9313 138.763C59.4624 139.724 60.2295 140.533 61.1603 141.115C62.188 141.752 63.374 142.087 64.5832 142.083C65.5942 142.077 66.5896 141.834 67.4894 141.373L93.3228 128.456C94.3878 127.92 95.2835 127.098 95.9105 126.084C96.5374 125.069 96.8712 123.901 96.8748 122.708V93.0646L136.4 53.5396C138.005 51.9422 139.298 50.0583 140.21 47.9854V47.5979C141.365 45.1724 142.003 42.5331 142.083 39.8479V32.2917C142.083 27.1531 140.042 22.225 136.408 18.5915C132.775 14.9579 127.847 12.9167 122.708 12.9167ZM85.8311 85.8312C85.2325 86.4347 84.759 87.1504 84.4376 87.9373C84.1162 88.7241 83.9533 89.5667 83.9582 90.4167V118.704L71.0415 125.162V90.4167C71.0464 89.5667 70.8835 88.7241 70.5621 87.9373C70.2407 87.1504 69.7672 86.4347 69.1686 85.8312L34.9394 51.6667H120.06L85.8311 85.8312ZM129.167 38.75H25.8332V32.2917C25.8332 30.5788 26.5136 28.9361 27.7248 27.7249C28.9359 26.5138 30.5786 25.8333 32.2915 25.8333H122.708C124.421 25.8333 126.064 26.5138 127.275 27.7249C128.486 28.9361 129.167 30.5788 129.167 32.2917V38.75Z" fill="black"/>
</svg>
