<svg width="65" height="60" viewBox="0 0 65 60" fill="none" xmlns="http://www.w3.org/2000/svg">
<g clip-path="url(#clip0_455_2)">
<path d="M32.1451 0L64.2879 12.8571V17.1429H60.0022C60.0022 17.7232 59.7734 18.2254 59.3158 18.6496C58.8582 19.0737 58.3169 19.2857 57.6919 19.2857H6.59818C5.97318 19.2857 5.43188 19.0737 4.9743 18.6496C4.51671 18.2254 4.28791 17.7232 4.28791 17.1429H0.00219727V12.8571L32.1451 0ZM8.57363 21.4286H17.1451V47.1429H21.4308V21.4286H30.0022V47.1429H34.2879V21.4286H42.8593V47.1429H47.1451V21.4286H55.7165V47.1429H57.6919C58.3169 47.1429 58.8582 47.3549 59.3158 47.779C59.7734 48.2031 60.0022 48.7054 60.0022 49.2857V51.4286H4.28791V49.2857C4.28791 48.7054 4.51671 48.2031 4.9743 47.779C5.43188 47.3549 5.97318 47.1429 6.59818 47.1429H8.57363V21.4286ZM61.9776 53.5714C62.6026 53.5714 63.1439 53.7835 63.6015 54.2076C64.0591 54.6317 64.2879 55.1339 64.2879 55.7143V60H0.00219727V55.7143C0.00219727 55.1339 0.230992 54.6317 0.688581 54.2076C1.14617 53.7835 1.68747 53.5714 2.31247 53.5714H61.9776Z" fill="black"/>
</g>
<defs>
<clipPath id="clip0_455_2">
<rect width="64.29" height="60" fill="white"/>
</clipPath>
</defs>
</svg>
