<svg width="60" height="60" viewBox="0 0 60 60" fill="none" xmlns="http://www.w3.org/2000/svg">
<path d="M39.2 36.4675C47.925 36.4675 55 29.4225 55 20.7325C55 12.045 47.925 5 39.2 5C30.475 5 23.405 12.045 23.405 20.7325C23.405 24.7575 25.2425 27.685 25.2425 27.685L6.13746 46.71C5.27996 47.565 4.07996 49.785 6.13746 51.835L8.34246 54.03C9.19996 54.7625 11.355 55.7875 13.1175 54.03L15.6925 51.47C18.2625 54.03 21.2025 52.5675 22.305 51.1025C24.14 48.5425 21.9375 45.98 21.9375 45.98L22.6725 45.2475C26.1975 48.76 29.285 46.7125 30.3875 45.2475C32.225 42.6875 30.3875 40.125 30.3875 40.125C29.6525 38.6625 28.1825 38.6625 30.02 36.8325L32.225 34.6375C33.9875 36.1 37.6125 36.4675 39.205 36.4675H39.2Z" stroke="black" stroke-width="3.75" stroke-linejoin="round"/>
<path d="M44.7125 20.7351C44.7092 22.1934 44.1269 23.5906 43.0936 24.6197C42.0604 25.6487 40.6608 26.2253 39.2025 26.2226C37.7442 26.2253 36.3446 25.6487 35.3114 24.6197C34.2781 23.5906 33.6958 22.1934 33.6925 20.7351C33.6938 20.0129 33.8374 19.2979 34.115 18.6311C34.3926 17.9643 34.7988 17.3588 35.3105 16.849C35.8221 16.3392 36.4292 15.9351 37.097 15.66C37.7648 15.3848 38.4802 15.2438 39.2025 15.2451C39.9248 15.2438 40.6402 15.3848 41.308 15.66C41.9758 15.9351 42.5829 16.3392 43.0945 16.849C43.6062 17.3588 44.0124 17.9643 44.29 18.6311C44.5676 19.2979 44.7112 20.0129 44.7125 20.7351Z" stroke="black" stroke-width="3.75"/>
</svg>
