<svg width="178" height="98" viewBox="0 0 178 98" fill="none" xmlns="http://www.w3.org/2000/svg">
<path d="M142 0.300097C143.1 0.700097 144.3 0.700097 145.4 0.900097C151.8 2.1001 157.5 4.7001 162.6 8.7001C168.6 13.5001 172.9 19.6001 175.4 26.9001C176.5 30.1001 177.1 33.4001 177.3 36.7001C177.5 38.9001 177.4 41.1001 177.4 43.2001C177.4 60.9001 177.4 78.6001 177.4 96.3001C177.4 98.1001 177.6 97.8001 175.8 97.8001C168 97.8001 160.2 97.8001 152.5 97.8001C151.2 97.8001 151.2 97.8001 151.2 96.5001C151.2 77.4001 151.2 58.4001 151.2 39.3001C151.2 35.7001 150 32.7001 147.6 30.2001C145.6 28.1001 143.2 26.8001 140.3 26.4001C138 26.1001 135.7 26.0001 133.4 26.7001C132.3 27.0001 132.3 27.0001 132.6 28.1001C133.9 32.5001 134.3 36.9001 134.3 41.4001C134.3 59.8001 134.3 78.2001 134.3 96.5001C134.3 97.9001 134.4 97.8001 133 97.8001C125.1 97.8001 117.2 97.8001 109.4 97.8001C108 97.8001 108.2 97.9001 108.2 96.5001C108.2 77.4001 108.2 58.2001 108.2 39.1001C108.2 32.9001 103.3 27.2001 97.1997 26.4001C95.1997 26.1001 93.1997 26.3001 91.1997 26.2001C91.1997 17.5001 91.1997 8.8001 91.1997 0.200097C93.5997 0.200097 95.8997 0.200097 98.2997 0.200097C98.4997 0.400097 98.7997 0.400097 98.9997 0.400097C100.3 0.400097 101.6 0.700097 102.9 0.900097C107.3 1.8001 111.4 3.4001 115.2 5.7001C115.7 6.0001 116.1 6.1001 116.7 5.7001C118.2 4.7001 119.8 4.0001 121.4 3.2001C124.5 1.9001 127.7 1.0001 131 0.500097C131.9 0.400097 132.9 0.500098 133.7 0.100098C136.6 0.300098 139.3 0.300097 142 0.300097Z" fill="#69B2E2"/>
<path d="M65.1999 26.3001C59.3999 26.3001 53.5999 26.3001 47.7999 26.3001C46.4999 26.3001 46.6999 26.1001 46.6999 27.4001C46.6999 50.4001 46.6999 73.4001 46.6999 96.4001C46.6999 96.7001 46.6999 96.9001 46.6999 97.2001C46.7999 97.8001 46.4999 97.9001 45.9999 97.9001C37.7999 97.9001 29.5999 97.9001 21.3999 97.9001C20.7999 97.9001 20.5999 97.7001 20.5999 97.1001C20.5999 96.9001 20.5999 96.6001 20.5999 96.3001C20.5999 73.4001 20.5999 50.6001 20.5999 27.7001C20.5999 27.4001 20.5999 27.2001 20.5999 26.9001C20.6999 26.3001 20.3999 26.1001 19.7999 26.1001C18.2999 26.1001 16.8999 26.1001 15.3999 26.1001C10.3999 26.1001 5.3999 26.1001 0.399902 26.1001C0.399902 17.4001 0.399902 8.8001 0.399902 0.100098C21.9999 0.100098 43.6999 0.100098 65.2999 0.100098C65.2999 9.0001 65.1999 17.6001 65.1999 26.3001Z" fill="#F26F21"/>
<path d="M65.1997 26.3C65.1997 17.6 65.1997 9.00005 65.1997 0.300049C73.8997 0.300049 82.4997 0.300049 91.1997 0.300049C91.1997 9.00005 91.1997 17.7 91.1997 26.3C84.8997 26.3 78.6997 26.3 72.3997 26.3C70.0997 26.3 67.6997 26.3 65.1997 26.3ZM80.5997 20C81.4997 21.1 82.2997 22.0001 83.2997 22.7001C84.9997 23.8001 87.1997 23.7 88.6997 22.4C89.0997 22.1 89.4997 21.7 89.2997 21.1C88.9997 20.6 88.4997 20.9 88.0997 21C86.8997 21.5 85.8997 21.1 84.9997 20.3C84.2997 19.7 83.6997 19 83.1997 18.4C82.6997 17.8 82.6997 17.4 83.1997 16.8C84.4997 15.2 85.6997 13.6 86.8997 11.9C87.4997 11 88.0997 10.1 89.3997 10.1C89.5997 10.1 89.6997 10 89.7997 9.80005C89.7997 9.50005 89.6997 9.40005 89.4997 9.30005C89.2997 9.30005 89.0997 9.20005 88.9997 9.30005C87.4997 9.40005 85.8997 9.40005 84.3997 9.30005C84.0997 9.30005 83.5997 9.30005 83.5997 9.60005C83.4997 10.1 83.9997 10 84.3997 10.1C84.5997 10.2 84.7997 10.2 84.9997 10.2C85.9997 10.4 85.9997 10.6 85.6997 11.5C85.0997 12.8 84.1997 13.8 83.3997 15C83.0997 15.5 82.7997 16 82.1997 16.4C80.7997 14.8 79.3997 13.2 77.9997 11.7C77.5997 11.3 77.7997 11.1 78.1997 10.9C78.7997 10.6 79.2997 10.3 79.7997 9.90005C81.4997 8.50005 81.4997 5.70005 79.7997 4.50005C78.4997 3.50005 76.0997 3.40005 74.5997 4.30005C72.9997 5.30005 72.4997 6.80005 72.5997 8.60005C72.6997 9.80005 73.2997 10.8 74.0997 11.8C73.7997 12.3 73.1997 12.4 72.7997 12.7C71.7997 13.2 70.8997 13.9 70.1997 14.7C68.0997 17 68.2997 22.1001 72.1997 23.2001C75.0997 24.0001 78.2997 23.2 80.1997 21C79.9997 20.7 80.2997 20.4 80.5997 20Z" fill="#20405E"/>
<path d="M65.2997 26.3C67.6997 26.3 70.0997 26.3 72.4997 26.3C78.7997 26.3 84.9997 26.3 91.2997 26.3C91.2997 49.8 91.2997 73.3 91.2997 96.8C91.2997 97.9 91.2997 97.9001 90.1997 97.9001C82.1997 97.9001 74.2997 97.9001 66.2997 97.9001C65.5997 97.9001 65.1997 97.8001 65.1997 96.9001C65.1997 73.5001 65.1997 50.2 65.1997 26.8C65.2997 26.7 65.2997 26.5 65.2997 26.3Z" fill="#69B2E2"/>
<path d="M75.2999 21.7C73.4999 21.7 72.0999 20.7 71.3999 19C70.6999 17.2 71.0999 15.4 72.4999 14.1C72.5999 14 72.6999 14 72.6999 13.9C74.2999 12.5 74.4999 12.5 75.8999 14.1C77.0999 15.5 78.2999 16.9 79.5999 18.3C80.1999 18.9 80.0999 19.4 79.4999 19.9C78.2999 21 76.8999 21.7 75.2999 21.7Z" fill="#004A60"/>
<path d="M78.9001 7.10007C78.8001 8.50007 78.2001 9.50007 77.2001 10.4001C76.8001 10.7001 76.5001 10.7001 76.2001 10.4001C75.2001 9.60007 74.6001 8.60007 74.3001 7.40007C74.1001 6.50007 74.2001 5.60007 75.0001 5.10007C75.8001 4.50007 76.8001 4.50007 77.7001 5.00007C78.7001 5.40007 78.9001 6.30007 78.9001 7.10007Z" fill="#004A60"/>
</svg>
